<svg width="212" height="62" viewBox="0 0 212 62" fill="none" xmlns="http://www.w3.org/2000/svg">
<g opacity="0.4">
<path d="M70.1681 35.9881C70.8308 35.5355 71.6081 35.2798 72.4101 35.2506C73.212 35.2214 74.0059 35.4198 74.6998 35.8229C75.3936 36.226 75.9592 36.8174 76.3311 37.5285C76.7029 38.2397 76.8658 39.0416 76.8009 39.8414C75.1012 40.4355 73.2958 40.6666 71.5012 40.52C71.4957 38.9144 71.0333 37.3421 70.1681 35.9895C69.4001 34.785 68.3408 33.7937 67.088 33.1073C65.8353 32.4209 64.4296 32.0615 63.0012 32.0625C61.5729 32.0618 60.1676 32.4212 58.9151 33.1076C57.6627 33.794 56.6035 34.7852 55.8357 35.9895M71.4998 40.5186L71.5012 40.5625C71.5012 40.8812 71.4842 41.1957 71.4488 41.506C68.878 42.9809 65.965 43.7547 63.0012 43.75C59.927 43.75 57.0413 42.934 54.5536 41.506C54.5172 41.1781 54.4997 40.8485 54.5012 40.5186M54.5012 40.5186C52.7072 40.6705 50.9027 40.4402 49.2043 39.8428C49.1396 39.0432 49.3026 38.2416 49.6744 37.5307C50.0461 36.8198 50.6115 36.2286 51.3052 35.8256C51.9988 35.4225 52.7924 35.224 53.5941 35.253C54.3958 35.282 55.173 35.5374 55.8357 35.9895M54.5012 40.5186C54.5063 38.9131 54.971 37.3422 55.8357 35.9895M67.2512 23.5625C67.2512 24.6897 66.8034 25.7707 66.0064 26.5677C65.2094 27.3647 64.1283 27.8125 63.0012 27.8125C61.874 27.8125 60.793 27.3647 59.996 26.5677C59.1989 25.7707 58.7512 24.6897 58.7512 23.5625C58.7512 22.4353 59.1989 21.3543 59.996 20.5573C60.793 19.7603 61.874 19.3125 63.0012 19.3125C64.1283 19.3125 65.2094 19.7603 66.0064 20.5573C66.8034 21.3543 67.2512 22.4353 67.2512 23.5625ZM75.7512 27.8125C75.7512 28.2311 75.6687 28.6456 75.5085 29.0323C75.3484 29.419 75.1136 29.7704 74.8176 30.0664C74.5216 30.3624 74.1702 30.5972 73.7835 30.7574C73.3968 30.9176 72.9823 31 72.5637 31C72.1451 31 71.7306 30.9176 71.3439 30.7574C70.9572 30.5972 70.6058 30.3624 70.3098 30.0664C70.0138 29.7704 69.779 29.419 69.6188 29.0323C69.4586 28.6456 69.3762 28.2311 69.3762 27.8125C69.3762 26.9671 69.712 26.1564 70.3098 25.5586C70.9075 24.9608 71.7183 24.625 72.5637 24.625C73.4091 24.625 74.2198 24.9608 74.8176 25.5586C75.4154 26.1564 75.7512 26.9671 75.7512 27.8125ZM56.6262 27.8125C56.6262 28.2311 56.5437 28.6456 56.3835 29.0323C56.2234 29.419 55.9886 29.7704 55.6926 30.0664C55.3966 30.3624 55.0452 30.5972 54.6585 30.7574C54.2718 30.9176 53.8573 31 53.4387 31C53.0201 31 52.6056 30.9176 52.2189 30.7574C51.8322 30.5972 51.4808 30.3624 51.1848 30.0664C50.8888 29.7704 50.654 29.419 50.4938 29.0323C50.3336 28.6456 50.2512 28.2311 50.2512 27.8125C50.2512 26.9671 50.587 26.1564 51.1848 25.5586C51.7825 24.9608 52.5933 24.625 53.4387 24.625C54.2841 24.625 55.0948 24.9608 55.6926 25.5586C56.2904 26.1564 56.6262 26.9671 56.6262 27.8125Z" stroke="#222222" stroke-width="2.125" stroke-linecap="round" stroke-linejoin="round"/>
<path d="M103.559 23.9766V25.7148C103.539 27.8438 103.539 30.2266 102.914 33.7227L101.352 33.5469C102.016 30.2266 102.016 27.7852 102.016 25.7148V25.2461H91.3125V23.9766H103.559ZM105.453 35.8516V37.1211H89.6328V35.8516H95.8438V29.6406H97.3477V35.8516H105.453ZM122.664 22.2383V32.4727H121.199V27.8828H118.836V32.3555H117.371V22.5703H118.836V26.6133H121.199V22.2383H122.664ZM122.664 33.2734V39.582H121.16V34.5234H110.945V33.2734H122.664ZM115.535 23.5078C115.535 27.6484 113.191 30.793 108.777 32.668L108.016 31.5156C111.619 30.041 113.66 27.6973 113.953 24.7773H108.719V23.5078H115.535ZM135.832 23.5664V24.4844C135.812 25.6172 135.812 27.3555 135.383 29.6211L133.84 29.5039C134.26 27.4238 134.299 25.9492 134.328 24.8555H127.18V23.5664H135.832ZM131.359 27.4141V31.1445C133.283 31.0664 135.275 30.9297 137.082 30.6758L137.18 31.8086C133.547 32.4336 129.348 32.5117 126.262 32.5117L126.105 31.2422C127.229 31.2324 128.498 31.2227 129.836 31.1836V27.4141H131.359ZM139.816 22.2188V27.8828H142.355V29.1914H139.816V35.2852H138.254V22.2188H139.816ZM140.383 37.9219V39.2109H128.781V34.1133H130.324V37.9219H140.383ZM158.824 22.2188V39.6211H157.301V22.2188H158.824ZM153.551 23.8398V30.0117H147.066V34.1133C149.947 34.1133 152.516 33.9863 155.621 33.4883L155.777 34.7773C152.574 35.2852 149.938 35.4023 146.949 35.4023H145.504V28.7617H152.008V25.1094H145.465V23.8398H153.551Z" fill="#222222"/>
</g>
</svg>
