<svg width="156" height="66" viewBox="0 0 156 66" fill="none" xmlns="http://www.w3.org/2000/svg">
<g filter="url(#filter0_d_249_5060)">
<path d="M6.5 26C6.5 15.2304 15.2304 6.5 26 6.5H130C140.77 6.5 149.5 15.2304 149.5 26V40C149.5 50.7696 140.77 59.5 130 59.5H26C15.2304 59.5 6.5 50.7696 6.5 40V26Z" stroke="#FB6091" shape-rendering="crispEdges"/>
<path d="M29.6875 28.75V23.4375C29.6875 22.5921 30.0233 21.7814 30.6211 21.1836C31.2189 20.5858 32.0296 20.25 32.875 20.25H41.375C42.2204 20.25 43.0311 20.5858 43.6289 21.1836C44.2267 21.7814 44.5625 22.5921 44.5625 23.4375V42.5625C44.5625 43.4079 44.2267 44.2186 43.6289 44.8164C43.0311 45.4142 42.2204 45.75 41.375 45.75H32.875C32.0296 45.75 31.2189 45.4142 30.6211 44.8164C30.0233 44.2186 29.6875 43.4079 29.6875 42.5625V37.25M35 28.75L39.25 33M39.25 33L35 37.25M39.25 33H21.1875" stroke="#FB6091" stroke-width="2.125" stroke-linecap="round" stroke-linejoin="round"/>
<path d="M86.7324 38.0078V39.5703H70.7168V38.0078H77.7676V34.9414H72.6699V29.375H82.9434V26.9141H72.6309V25.3906H84.7793V30.8594H74.5059V33.418H85.1895V34.9414H79.6035V38.0078H86.7324ZM102.869 25.9375V27.8125C102.869 30.0781 102.869 32.5391 102.225 36.2695L100.33 36.0938C101.033 32.5977 101.033 30.0195 101.033 27.8125V27.4609H90.7207V25.9375H102.869ZM104.959 37.6367V39.1797H89.002V37.6367H104.959ZM121.799 24.1797V36.8945H119.943V24.1797H121.799ZM122.326 39.7852V41.2891H110.354V35.6055H112.229V39.7852H122.326ZM112.307 25.3516C114.943 25.3516 116.955 27.1484 116.955 29.6875C116.955 32.2656 114.943 34.043 112.307 34.043C109.67 34.043 107.639 32.2656 107.639 29.6875C107.639 27.1484 109.67 25.3516 112.307 25.3516ZM112.307 26.9727C110.666 26.9727 109.455 28.0859 109.455 29.6875C109.455 31.3281 110.666 32.4219 112.307 32.4219C113.908 32.4219 115.139 31.3281 115.139 29.6875C115.139 28.0859 113.908 26.9727 112.307 26.9727Z" fill="#FB6091"/>
</g>
<defs>
<filter id="filter0_d_249_5060" x="0" y="0" width="156" height="66" filterUnits="userSpaceOnUse" color-interpolation-filters="sRGB">
<feFlood flood-opacity="0" result="BackgroundImageFix"/>
<feColorMatrix in="SourceAlpha" type="matrix" values="0 0 0 0 0 0 0 0 0 0 0 0 0 0 0 0 0 0 127 0" result="hardAlpha"/>
<feOffset/>
<feGaussianBlur stdDeviation="3"/>
<feComposite in2="hardAlpha" operator="out"/>
<feColorMatrix type="matrix" values="0 0 0 0 0.494629 0 0 0 0 0.494629 0 0 0 0 0.494629 0 0 0 0.25 0"/>
<feBlend mode="normal" in2="BackgroundImageFix" result="effect1_dropShadow_249_5060"/>
<feBlend mode="normal" in="SourceGraphic" in2="effect1_dropShadow_249_5060" result="shape"/>
</filter>
</defs>
</svg>
