<svg width="212" height="62" viewBox="0 0 212 62" fill="none" xmlns="http://www.w3.org/2000/svg">
<g opacity="0.4">
<path d="M65.125 37.9062H69.9062M69.9062 37.9062H74.6875M69.9062 37.9062V33.125M69.9062 37.9062V42.6875M54.5 28.875H57.6875C58.5329 28.875 59.3436 28.5392 59.9414 27.9414C60.5392 27.3436 60.875 26.5329 60.875 25.6875V22.5C60.875 21.6546 60.5392 20.8439 59.9414 20.2461C59.3436 19.6483 58.5329 19.3125 57.6875 19.3125H54.5C53.6546 19.3125 52.8439 19.6483 52.2461 20.2461C51.6483 20.8439 51.3125 21.6546 51.3125 22.5V25.6875C51.3125 26.5329 51.6483 27.3436 52.2461 27.9414C52.8439 28.5392 53.6546 28.875 54.5 28.875ZM54.5 42.6875H57.6875C58.5329 42.6875 59.3436 42.3517 59.9414 41.7539C60.5392 41.1561 60.875 40.3454 60.875 39.5V36.3125C60.875 35.4671 60.5392 34.6564 59.9414 34.0586C59.3436 33.4608 58.5329 33.125 57.6875 33.125H54.5C53.6546 33.125 52.8439 33.4608 52.2461 34.0586C51.6483 34.6564 51.3125 35.4671 51.3125 36.3125V39.5C51.3125 40.3454 51.6483 41.1561 52.2461 41.7539C52.8439 42.3517 53.6546 42.6875 54.5 42.6875ZM68.3125 28.875H71.5C72.3454 28.875 73.1561 28.5392 73.7539 27.9414C74.3517 27.3436 74.6875 26.5329 74.6875 25.6875V22.5C74.6875 21.6546 74.3517 20.8439 73.7539 20.2461C73.1561 19.6483 72.3454 19.3125 71.5 19.3125H68.3125C67.4671 19.3125 66.6564 19.6483 66.0586 20.2461C65.4608 20.8439 65.125 21.6546 65.125 22.5V25.6875C65.125 26.5329 65.4608 27.3436 66.0586 27.9414C66.6564 28.5392 67.4671 28.875 68.3125 28.875Z" stroke="#222222" stroke-width="2.125" stroke-linecap="round" stroke-linejoin="round"/>
<path d="M96.957 24.1328V28.6836H99.3008V22.4922H101.078V38.8008H99.3008V30.207H96.957V35.0508H90.1602V24.1328H96.957ZM91.918 25.5977V33.5664H95.2188V25.5977H91.918ZM104.633 22.1602V39.6602H102.855V22.1602H104.633ZM121.98 27.9414V29.4453H109.852V23.0195H111.727V27.9414H121.98ZM123.816 31.8086V33.3125H119.832V39.6602H117.957V33.3125H113.719V39.6602H111.863V33.3125H107.859V31.8086H123.816ZM135.891 23.4883V24.4648C135.871 25.6367 135.871 27.375 135.441 29.6406L133.605 29.4648C133.986 27.5215 134.045 26.1152 134.074 25.0117H127.062V23.4883H135.891ZM131.418 27.4141V31.0273C133.293 30.9688 135.227 30.832 136.984 30.5781L137.102 31.9258C133.449 32.5703 129.27 32.6289 126.184 32.6484L126.008 31.1445C127.082 31.1348 128.303 31.125 129.582 31.0859V27.4141H131.418ZM139.992 22.1602V27.7266H142.395V29.2891H139.992V35.3047H138.098V22.1602H139.992ZM140.559 37.7852V39.2891H128.664V34.1133H130.52V37.7852H140.559ZM158.961 22.1602V39.6992H157.105V22.1602H158.961ZM153.609 23.7422V30.1289H147.32V33.957C150.152 33.9473 152.633 33.8203 155.562 33.332L155.738 34.8555C152.633 35.3828 149.996 35.5 146.91 35.5H145.426V28.6445H151.715V25.2461H145.406V23.7422H153.609Z" fill="#222222"/>
</g>
</svg>
