<svg width="212" height="62" viewBox="0 0 212 62" fill="none" xmlns="http://www.w3.org/2000/svg">
<g opacity="0.4">
<path d="M55.5625 18.25V21.4375M70.4375 18.25V21.4375M50.25 40.5625V24.625C50.25 23.7796 50.5858 22.9689 51.1836 22.3711C51.7814 21.7733 52.5921 21.4375 53.4375 21.4375H72.5625C73.4079 21.4375 74.2186 21.7733 74.8164 22.3711C75.4142 22.9689 75.75 23.7796 75.75 24.625V40.5625M50.25 40.5625C50.25 41.4079 50.5858 42.2186 51.1836 42.8164C51.7814 43.4142 52.5921 43.75 53.4375 43.75H72.5625C73.4079 43.75 74.2186 43.4142 74.8164 42.8164C75.4142 42.2186 75.75 41.4079 75.75 40.5625M50.25 40.5625V29.9375C50.25 29.0921 50.5858 28.2814 51.1836 27.6836C51.7814 27.0858 52.5921 26.75 53.4375 26.75H72.5625C73.4079 26.75 74.2186 27.0858 74.8164 27.6836C75.4142 28.2814 75.75 29.0921 75.75 29.9375V40.5625" stroke="#222222" stroke-width="2.125" stroke-linecap="round" stroke-linejoin="round"/>
<path d="M58.9638 34.9947L62.2977 38.1937L67.0389 31.4204" stroke="#222222" stroke-width="2.125" stroke-linecap="round" stroke-linejoin="round"/>
<path d="M104.516 22.2188V39.582H103.031V22.2188H104.516ZM101.059 22.5898V38.7031H99.5938V33H96.8203C96.2148 34.7383 95.0625 35.7539 93.5781 35.7539C91.3125 35.7539 89.8477 33.4102 89.8477 29.7188C89.8477 26.0273 91.3125 23.6836 93.5781 23.6836C95.0625 23.6836 96.2148 24.6992 96.8203 26.4375H99.5938V22.5898H101.059ZM93.5781 25.1289C92.1523 25.1289 91.2734 26.8867 91.2734 29.7188C91.2734 32.5312 92.1523 34.3086 93.5781 34.2891C94.9844 34.3086 95.9023 32.5312 95.9023 29.7188C95.9023 26.8867 94.9844 25.1289 93.5781 25.1289ZM97.1523 27.707C97.2695 28.3223 97.3281 28.9961 97.3281 29.7188C97.3281 30.4316 97.2695 31.1055 97.1719 31.7109H99.5938V27.707H97.1523ZM124.07 24.9141V26.1641H121.492V28.6055H124.07V29.9141H121.492V32.5508H119.969V22.2188H121.492V24.9141H124.07ZM121.492 33.3516V39.582H119.969V34.6211H110.125V33.3516H121.492ZM112.801 23.2734C115.438 23.2539 117.352 24.9531 117.371 27.3555C117.352 29.7969 115.438 31.4766 112.801 31.4766C110.164 31.4766 108.23 29.7969 108.25 27.3555C108.23 24.9531 110.164 23.2539 112.801 23.2734ZM112.801 24.582C111.043 24.582 109.734 25.7148 109.754 27.3555C109.734 29.0156 111.043 30.168 112.801 30.1484C114.578 30.168 115.867 29.0156 115.867 27.3555C115.867 25.7148 114.578 24.582 112.801 24.582ZM135.832 23.5664V24.4844C135.812 25.6172 135.812 27.3555 135.383 29.6211L133.84 29.5039C134.26 27.4238 134.299 25.9492 134.328 24.8555H127.18V23.5664H135.832ZM131.359 27.4141V31.1445C133.283 31.0664 135.275 30.9297 137.082 30.6758L137.18 31.8086C133.547 32.4336 129.348 32.5117 126.262 32.5117L126.105 31.2422C127.229 31.2324 128.498 31.2227 129.836 31.1836V27.4141H131.359ZM139.816 22.2188V27.8828H142.355V29.1914H139.816V35.2852H138.254V22.2188H139.816ZM140.383 37.9219V39.2109H128.781V34.1133H130.324V37.9219H140.383ZM158.824 22.2188V39.6211H157.301V22.2188H158.824ZM153.551 23.8398V30.0117H147.066V34.1133C149.947 34.1133 152.516 33.9863 155.621 33.4883L155.777 34.7773C152.574 35.2852 149.938 35.4023 146.949 35.4023H145.504V28.7617H152.008V25.1094H145.465V23.8398H153.551Z" fill="#222222"/>
</g>
</svg>
