<svg width="212" height="62" viewBox="0 0 212 62" fill="none" xmlns="http://www.w3.org/2000/svg">
<g opacity="0.4">
<path d="M55.5625 18.25V21.4375M70.4375 18.25V21.4375M50.25 40.5625V24.625C50.25 23.7796 50.5858 22.9689 51.1836 22.3711C51.7814 21.7733 52.5921 21.4375 53.4375 21.4375H72.5625C73.4079 21.4375 74.2186 21.7733 74.8164 22.3711C75.4142 22.9689 75.75 23.7796 75.75 24.625V40.5625M50.25 40.5625C50.25 41.4079 50.5858 42.2186 51.1836 42.8164C51.7814 43.4142 52.5921 43.75 53.4375 43.75H72.5625C73.4079 43.75 74.2186 43.4142 74.8164 42.8164C75.4142 42.2186 75.75 41.4079 75.75 40.5625M50.25 40.5625V29.9375C50.25 29.0921 50.5858 28.2814 51.1836 27.6836C51.7814 27.0858 52.5921 26.75 53.4375 26.75H72.5625C73.4079 26.75 74.2186 27.0858 74.8164 27.6836C75.4142 28.2814 75.75 29.0921 75.75 29.9375V40.5625M63 32.0625H63.0113V32.0738H63V32.0625ZM63 35.25H63.0113V35.2613H63V35.25ZM63 38.4375H63.0113V38.4488H63V38.4375ZM59.8125 35.25H59.8238V35.2613H59.8125V35.25ZM59.8125 38.4375H59.8238V38.4488H59.8125V38.4375ZM56.625 35.25H56.6363V35.2613H56.625V35.25ZM56.625 38.4375H56.6363V38.4488H56.625V38.4375ZM66.1875 32.0625H66.1988V32.0738H66.1875V32.0625ZM66.1875 35.25H66.1988V35.2613H66.1875V35.25ZM66.1875 38.4375H66.1988V38.4488H66.1875V38.4375ZM69.375 32.0625H69.3863V32.0738H69.375V32.0625ZM69.375 35.25H69.3863V35.2613H69.375V35.25Z" stroke="#222222" stroke-width="2.125" stroke-linecap="round" stroke-linejoin="round"/>
<path d="M94.5547 22.8633C97.1523 22.8828 99.0469 24.4453 99.0469 26.7109C99.0469 28.9766 97.1523 30.5391 94.5547 30.5391C91.918 30.5391 90.043 28.9766 90.043 26.7109C90.043 24.4453 91.918 22.8828 94.5547 22.8633ZM94.5547 24.1523C92.8164 24.1523 91.5273 25.207 91.5469 26.7109C91.5273 28.2344 92.8164 29.2891 94.5547 29.2891C96.2734 29.2891 97.5625 28.2344 97.5625 26.7109C97.5625 25.207 96.2734 24.1523 94.5547 24.1523ZM103.969 22.2188V31.1445H102.445V22.2188H103.969ZM103.969 31.9844V36.1641H94.2227V38.1172H104.594V39.3477H92.7188V35.0117H102.445V33.2148H92.6797V31.9844H103.969ZM122.312 22.2188V32.5703H120.77V28.0195H117.273V26.75H120.77V22.2188H122.312ZM116.551 33.1172C120.164 33.1172 122.371 34.2891 122.371 36.3398C122.371 38.3906 120.164 39.5625 116.551 39.582C112.938 39.5625 110.73 38.3906 110.73 36.3398C110.73 34.2891 112.938 33.1172 116.551 33.1172ZM116.551 34.3086C113.895 34.3086 112.234 35.0703 112.254 36.3398C112.234 37.5898 113.895 38.3516 116.551 38.3516C119.207 38.3516 120.848 37.5898 120.848 36.3398C120.848 35.0703 119.207 34.3086 116.551 34.3086ZM113.953 25.4023C113.953 27.668 115.691 29.8164 118.23 30.6953L117.43 31.9258C115.477 31.2227 113.963 29.7676 113.23 27.9609C112.469 30.002 110.857 31.6328 108.797 32.4141L107.996 31.1836C110.574 30.2461 112.41 27.9023 112.41 25.4219V24.7773H108.484V23.4883H117.84V24.7773H113.953V25.4023ZM135.832 23.5664V24.4844C135.812 25.6172 135.812 27.3555 135.383 29.6211L133.84 29.5039C134.26 27.4238 134.299 25.9492 134.328 24.8555H127.18V23.5664H135.832ZM131.359 27.4141V31.1445C133.283 31.0664 135.275 30.9297 137.082 30.6758L137.18 31.8086C133.547 32.4336 129.348 32.5117 126.262 32.5117L126.105 31.2422C127.229 31.2324 128.498 31.2227 129.836 31.1836V27.4141H131.359ZM139.816 22.2188V27.8828H142.355V29.1914H139.816V35.2852H138.254V22.2188H139.816ZM140.383 37.9219V39.2109H128.781V34.1133H130.324V37.9219H140.383ZM158.824 22.2188V39.6211H157.301V22.2188H158.824ZM153.551 23.8398V30.0117H147.066V34.1133C149.947 34.1133 152.516 33.9863 155.621 33.4883L155.777 34.7773C152.574 35.2852 149.938 35.4023 146.949 35.4023H145.504V28.7617H152.008V25.1094H145.465V23.8398H153.551Z" fill="#222222"/>
</g>
</svg>
