<svg width="212" height="62" viewBox="0 0 212 62" fill="none" xmlns="http://www.w3.org/2000/svg">
<g opacity="0.4">
<path d="M58.2192 27.8145C58.2192 27.9554 58.1633 28.0905 58.0636 28.1901C57.964 28.2897 57.8289 28.3457 57.688 28.3457C57.5471 28.3457 57.412 28.2897 57.3123 28.1901C57.2127 28.0905 57.1567 27.9554 57.1567 27.8145C57.1567 27.6736 57.2127 27.5384 57.3123 27.4388C57.412 27.3392 57.5471 27.2832 57.688 27.2832C57.8289 27.2832 57.964 27.3392 58.0636 27.4388C58.1633 27.5384 58.2192 27.6736 58.2192 27.8145ZM58.2192 27.8145H57.688M63.5317 27.8145C63.5317 27.9554 63.4758 28.0905 63.3761 28.1901C63.2765 28.2897 63.1414 28.3457 63.0005 28.3457C62.8596 28.3457 62.7245 28.2897 62.6248 28.1901C62.5252 28.0905 62.4692 27.9554 62.4692 27.8145C62.4692 27.6736 62.5252 27.5384 62.6248 27.4388C62.7245 27.3392 62.8596 27.2832 63.0005 27.2832C63.1414 27.2832 63.2765 27.3392 63.3761 27.4388C63.4758 27.5384 63.5317 27.6736 63.5317 27.8145ZM63.5317 27.8145H63.0005M68.8442 27.8145C68.8442 27.9554 68.7883 28.0905 68.6886 28.1901C68.589 28.2897 68.4539 28.3457 68.313 28.3457C68.1721 28.3457 68.037 28.2897 67.9373 28.1901C67.8377 28.0905 67.7817 27.9554 67.7817 27.8145C67.7817 27.6736 67.8377 27.5384 67.9373 27.4388C68.037 27.3392 68.1721 27.2832 68.313 27.2832C68.4539 27.2832 68.589 27.3392 68.6886 27.4388C68.7883 27.5384 68.8442 27.6736 68.8442 27.8145ZM68.8442 27.8145H68.313M49.188 32.0786C49.188 34.3453 50.7789 36.3201 53.0229 36.6502C54.5628 36.8769 56.1183 37.0511 57.688 37.173V43.752L63.6153 37.826C63.9088 37.5337 64.3034 37.3653 64.7175 37.3557C67.4823 37.2877 70.2404 37.0521 72.9767 36.6502C75.2221 36.3201 76.813 34.3467 76.813 32.0772V23.5517C76.813 21.2822 75.2221 19.3088 72.9781 18.9787C69.6743 18.4938 66.3396 18.2509 63.0005 18.252C59.6118 18.252 56.2798 18.4999 53.0229 18.9787C50.7789 19.3088 49.188 21.2836 49.188 23.5517V32.0772V32.0786Z" stroke="#222222" stroke-width="2.125" stroke-linecap="round" stroke-linejoin="round"/>
<path d="M113.191 27.4531C113.191 30.1484 114.305 32.9219 116.805 34.2305L115.574 35.832C113.924 34.9727 112.82 33.4297 112.195 31.5742C111.57 33.5664 110.457 35.2754 108.797 36.2227L107.547 34.6211C110.008 33.1758 111.141 30.2461 111.141 27.4531V26.9648H108.055V25.1875H111.141V22.707H113.191V25.1875H116.238V26.9648H113.191V27.4531ZM123.113 22.082V39.7383H121.043V30.793H119.227V38.8789H117.176V22.3945H119.227V28.9961H121.043V22.082H123.113ZM135.598 23.3516V25.0703H129.27V26.75H135.09V28.4492H129.27V30.1484C132.57 30.168 134.582 30.1191 136.906 29.7188L137.121 31.4375C134.582 31.8477 132.375 31.9258 128.566 31.9062H127.062V23.3516H135.598ZM140.793 22.1016V32.8633H138.605V22.1016H140.793ZM134.836 33.1172C138.547 33.1172 140.871 34.3281 140.871 36.418C140.871 38.5078 138.547 39.7188 134.836 39.7188C131.066 39.7188 128.781 38.5078 128.801 36.418C128.781 34.3281 131.066 33.1172 134.836 33.1172ZM134.836 34.7969C132.336 34.7969 130.949 35.3828 130.969 36.418C130.949 37.4727 132.336 38.0391 134.836 38.0391C137.277 38.0391 138.703 37.4727 138.703 36.418C138.703 35.3828 137.277 34.7969 134.836 34.7969Z" fill="#222222"/>
</g>
</svg>
