<svg width="31" height="29" viewBox="0 0 31 29" fill="none" xmlns="http://www.w3.org/2000/svg">
<path d="M17.8746 27.4307V16.8057C17.8746 16.5239 17.9866 16.2536 18.1858 16.0544C18.3851 15.8551 18.6553 15.7432 18.9371 15.7432H23.1871C23.4689 15.7432 23.7392 15.8551 23.9384 16.0544C24.1377 16.2536 24.2496 16.5239 24.2496 16.8057V27.4307M17.8746 27.4307H2.09296M17.8746 27.4307H24.2496M24.2496 27.4307H29.4063M27.4371 27.4307V10.9251M27.4371 10.9251C26.5873 11.4154 25.5939 11.5966 24.6257 11.4381C23.6574 11.2796 22.7738 10.791 22.1246 10.0552C21.3455 10.9364 20.2065 11.4932 18.9371 11.4932C18.334 11.4937 17.7377 11.3657 17.1881 11.1175C16.6384 10.8692 16.148 10.5066 15.7496 10.0538C14.9705 10.9364 13.8315 11.4932 12.5621 11.4932C11.959 11.4937 11.3627 11.3657 10.8131 11.1175C10.2634 10.8692 9.77301 10.5066 9.37463 10.0538C8.72568 10.7898 7.84214 11.2786 6.87385 11.4374C5.90557 11.5962 4.91216 11.4152 4.06213 10.9251M27.4371 10.9251C28.0018 10.5991 28.4839 10.1476 28.8461 9.60547C29.2084 9.06335 29.441 8.44515 29.5261 7.79871C29.6111 7.15228 29.5463 6.49494 29.3366 5.87757C29.1269 5.2602 28.778 4.69934 28.3169 4.23841L26.631 2.554C26.2329 2.15537 25.6928 1.93116 25.1294 1.93066H6.36846C5.80527 1.93078 5.26516 2.15447 4.8668 2.55258L3.18238 4.23841C2.7223 4.69988 2.37433 5.26083 2.16531 5.87803C1.95629 6.49522 1.89179 7.15218 1.97679 7.79824C2.06179 8.4443 2.29402 9.06221 2.65557 9.60434C3.01713 10.1465 3.49835 10.5983 4.06213 10.9251M4.06213 27.4307V10.9251M8.31213 23.1807H13.6246C13.9064 23.1807 14.1767 23.0687 14.3759 22.8695C14.5752 22.6702 14.6871 22.4 14.6871 22.1182V16.8057C14.6871 16.5239 14.5752 16.2536 14.3759 16.0544C14.1767 15.8551 13.9064 15.7432 13.6246 15.7432H8.31213C8.03034 15.7432 7.76009 15.8551 7.56083 16.0544C7.36157 16.2536 7.24963 16.5239 7.24963 16.8057V22.1182C7.24963 22.7047 7.72563 23.1807 8.31213 23.1807Z" stroke="#FB6091" stroke-width="2.125" stroke-linecap="round" stroke-linejoin="round"/>
</svg>
