<svg width="509" height="136" viewBox="0 0 509 136" fill="none" xmlns="http://www.w3.org/2000/svg">
<g filter="url(#filter0_d_249_5088)">
<g clip-path="url(#clip0_249_5088)">
<path d="M9.51172 17.6523C9.51172 11.944 14.1393 7.31641 19.8476 7.31641H115.455C121.163 7.31641 125.791 11.944 125.791 17.6523V113.26C125.791 118.968 121.163 123.595 115.455 123.595H19.8476C14.1393 123.595 9.51172 118.968 9.51172 113.26V17.6523Z" fill="white"/>
<circle cx="104.969" cy="35.6142" r="34.413" fill="#FFDBE6"/>
<path fill-rule="evenodd" clip-rule="evenodd" d="M60.9042 70.0416H44.6646L47.2912 36.6135C47.5541 33.3821 47.9437 32.4351 48.9553 31.8652H57.7983C59.1265 31.8652 60.2387 32.8764 60.3662 34.1985C61.6699 47.7184 62.2226 55.9527 62.9452 70.0416H60.9042Z" fill="#FF4882"/>
<path d="M48.9553 31.8652H57.7983C59.1265 31.8652 60.2387 32.8764 60.3662 34.1985C61.6699 47.7184 62.2226 55.9527 62.9452 70.0416H60.9042H44.6646M48.9553 31.8652H43.1092C41.7907 31.8652 40.6833 32.8623 40.5441 34.1734C39.1101 47.6828 38.4989 55.9381 37.6455 70.0416H39.9414H44.6646M48.9553 31.8652C47.9437 32.4351 47.5541 33.3821 47.2912 36.6135L44.6646 70.0416" stroke="#FF4882" stroke-width="4.70008" stroke-linejoin="round"/>
<path fill-rule="evenodd" clip-rule="evenodd" d="M38.6561 74.7417H61.9357C63.389 74.7417 64.6231 74.7416 65.6429 74.8471C66.7286 74.9593 67.7321 75.2031 68.6801 75.789C69.6282 76.3749 70.295 77.1634 70.881 78.0844C71.4313 78.9494 71.9831 80.0532 72.6331 81.3532L72.6752 81.4372C72.6999 81.4868 72.7226 81.5374 72.743 81.589L76.3221 90.6366C76.7479 91.7132 77.2199 93.0563 77.3579 94.4306C77.4992 95.8364 77.3054 97.4468 76.2038 98.8437C75.3029 99.9863 74.0501 100.844 72.6081 101.252V125.741H72.8813C73.9375 125.741 74.7938 126.597 74.7938 127.653C74.7938 128.71 73.9375 129.566 72.8813 129.566H27.7106C26.6544 129.566 25.7981 128.71 25.7981 127.653C25.7981 126.597 26.6544 125.741 27.7106 125.741H27.9838V101.252C26.5417 100.844 25.2888 99.9863 24.3877 98.8437C23.2863 97.4468 23.0925 95.8364 23.2337 94.4306C23.3717 93.0562 23.8437 91.7132 24.2695 90.6366L27.8487 81.589C27.8691 81.5374 27.8917 81.4868 27.9165 81.4372L27.9586 81.3531C28.6085 80.0531 29.1603 78.9494 29.7107 78.0844C30.2967 77.1634 30.9635 76.3749 31.9115 75.789C32.8595 75.2031 33.863 74.9593 34.9488 74.8471C35.9686 74.7416 37.2027 74.7417 38.6561 74.7417ZM65.5955 99.3169C66.4522 100.224 67.5485 100.903 68.7831 101.252V125.741H58.5833V118.646C58.5833 117.525 58.5833 116.557 58.5114 115.764C58.4354 114.924 58.2669 114.093 57.8148 113.31C57.3111 112.438 56.5867 111.713 55.7146 111.21C54.9313 110.758 54.1 110.589 53.2608 110.513C52.467 110.441 51.4995 110.441 50.3781 110.441H50.2138C49.0924 110.441 48.1249 110.441 47.3311 110.513C46.4919 110.589 45.6606 110.758 44.8773 111.21C44.0051 111.713 43.2808 112.438 42.7772 113.31C42.325 114.093 42.1565 114.924 42.0804 115.764C42.0085 116.557 42.0085 117.525 42.0086 118.646V125.741H31.8088V101.252C33.0433 100.903 34.1394 100.224 34.996 99.3169C36.2745 100.671 38.0865 101.516 40.0959 101.516C42.1053 101.516 43.9173 100.671 45.1958 99.3169C46.4743 100.671 48.2863 101.516 50.2957 101.516C52.3051 101.516 54.1171 100.671 55.3956 99.3169C56.6742 100.671 58.4862 101.516 60.4955 101.516C62.5049 101.516 64.3169 100.671 65.5955 99.3169ZM45.8335 125.741H54.7584V118.728C54.7584 117.502 54.7566 116.709 54.702 116.109C54.65 115.535 54.5623 115.327 54.5021 115.222C54.3343 114.932 54.0928 114.69 53.8021 114.522C53.6978 114.462 53.4895 114.374 52.9155 114.322C52.315 114.268 51.5227 114.266 50.2959 114.266C49.0692 114.266 48.2769 114.268 47.6764 114.322C47.1024 114.374 46.8941 114.462 46.7898 114.522C46.4991 114.69 46.2576 114.932 46.0898 115.222C46.0296 115.327 45.9419 115.535 45.8899 116.109C45.8353 116.709 45.8335 117.502 45.8335 118.728V125.741ZM36.9084 94.5039C36.9084 96.2643 38.3355 97.6913 40.0959 97.6913C41.8563 97.6913 43.2833 96.2643 43.2833 94.5039C43.2833 93.4477 44.1396 92.5914 45.1958 92.5914C46.252 92.5914 47.1083 93.4477 47.1083 94.5039C47.1083 96.2643 48.5355 97.6913 50.2957 97.6913C52.0562 97.6913 53.4831 96.2643 53.4831 94.5039C53.4831 93.4477 54.3394 92.5914 55.3956 92.5914C56.4518 92.5914 57.3081 93.4477 57.3081 94.5039C57.3081 96.2643 58.7353 97.6913 60.4955 97.6913C62.256 97.6913 63.683 96.2643 63.683 94.5039C63.683 93.4477 64.5393 92.5914 65.5955 92.5914C66.6516 92.5914 67.5079 93.4477 67.5079 94.5039C67.5079 96.2643 68.9351 97.6913 70.6954 97.6913C71.7103 97.6913 72.6137 97.2193 73.2004 96.4751C73.4909 96.1068 73.6314 95.6028 73.5521 94.8128C73.4697 93.9914 73.1665 93.0574 72.7654 92.0436L69.2169 83.0734C68.5343 81.7083 68.0781 80.8042 67.6538 80.1377C67.246 79.4966 66.9536 79.2185 66.6692 79.0427C66.3849 78.8669 66.0052 78.7299 65.2494 78.6517C64.4495 78.569 63.4145 78.5666 61.8417 78.5666H38.7501C37.1773 78.5666 36.1422 78.569 35.3422 78.6517C34.5863 78.7299 34.2068 78.8669 33.9224 79.0427C33.638 79.2185 33.3457 79.4966 32.9378 80.1377C32.5137 80.8042 32.0575 81.7083 31.3748 83.0734L27.8263 92.0436C27.4252 93.0574 27.122 93.9914 27.0395 94.8128C26.9602 95.6028 27.1007 96.1068 27.3912 96.4752C27.978 97.2193 28.8813 97.6913 29.8961 97.6913C31.6564 97.6913 33.0835 96.2643 33.0835 94.5039C33.0835 93.4477 33.9398 92.5914 34.996 92.5914C36.0522 92.5914 36.9084 93.4477 36.9084 94.5039Z" fill="#FF4882"/>
<path d="M36.9084 94.5039C36.9084 96.2643 38.3355 97.6913 40.0959 97.6913C41.8563 97.6913 43.2833 96.2643 43.2833 94.5039C43.2833 93.4477 44.1396 92.5914 45.1958 92.5914C46.252 92.5914 47.1083 93.4477 47.1083 94.5039C47.1083 96.2643 48.5355 97.6913 50.2957 97.6913C52.0562 97.6913 53.4831 96.2643 53.4831 94.5039C53.4831 93.4477 54.3394 92.5914 55.3956 92.5914C56.4518 92.5914 57.3081 93.4477 57.3081 94.5039C57.3081 96.2643 58.7353 97.6913 60.4955 97.6913C62.256 97.6913 63.683 96.2643 63.683 94.5039C63.683 93.4477 64.5393 92.5914 65.5955 92.5914C66.6516 92.5914 67.5079 93.4477 67.5079 94.5039C67.5079 96.2643 68.9351 97.6913 70.6954 97.6913C71.7103 97.6913 72.6137 97.2193 73.2004 96.4751C73.4909 96.1068 73.6314 95.6028 73.5521 94.8128C73.4697 93.9914 73.1665 93.0574 72.7654 92.0436L69.2169 83.0734C68.5343 81.7083 68.0781 80.8042 67.6538 80.1377C67.246 79.4966 66.9536 79.2185 66.6692 79.0427C66.3849 78.8669 66.0052 78.7299 65.2494 78.6517C64.4495 78.569 63.4145 78.5666 61.8417 78.5666H38.7501C37.1773 78.5666 36.1422 78.569 35.3422 78.6517C34.5863 78.7299 34.2068 78.8669 33.9224 79.0427C33.638 79.2185 33.3457 79.4966 32.9378 80.1377C32.5137 80.8042 32.0575 81.7083 31.3748 83.0734L27.8263 92.0436C27.4252 93.0574 27.122 93.9914 27.0395 94.8128C26.9602 95.6028 27.1007 96.1068 27.3912 96.4752C27.978 97.2193 28.8813 97.6913 29.8961 97.6913C31.6564 97.6913 33.0835 96.2643 33.0835 94.5039C33.0835 93.4477 33.9398 92.5914 34.996 92.5914C36.0522 92.5914 36.9084 93.4477 36.9084 94.5039Z" fill="#FF4882"/>
<path d="M45.8335 125.741H54.7584V118.728C54.7584 117.502 54.7566 116.709 54.702 116.109C54.65 115.535 54.5623 115.327 54.5021 115.222C54.3343 114.932 54.0928 114.69 53.8021 114.522C53.6978 114.462 53.4895 114.374 52.9155 114.322C52.315 114.268 51.5227 114.266 50.2959 114.266C49.0692 114.266 48.2769 114.268 47.6764 114.322C47.1024 114.374 46.8941 114.462 46.7898 114.522C46.4991 114.69 46.2576 114.932 46.0898 115.222C46.0296 115.327 45.9419 115.535 45.8899 116.109C45.8353 116.709 45.8335 117.502 45.8335 118.728V125.741Z" fill="#FF4882"/>
<path d="M103.035 50.1191H96.5882L93.3643 35.9922C98.749 34.7421 101.1 34.7007 106.26 35.9922L103.035 50.1191Z" fill="#FF4882" stroke="#FF4882" stroke-width="1.56669"/>
<rect x="97.4619" y="51.6855" width="4.70008" height="34.963" fill="#FF4882"/>
<path fill-rule="evenodd" clip-rule="evenodd" d="M89.2032 88.2152L105.443 88.2152L102.816 121.643C102.553 124.875 102.164 125.822 101.152 126.392L92.3091 126.392C90.981 126.392 89.8687 125.38 89.7413 124.058C88.4376 110.538 87.8848 102.304 87.1622 88.2152L89.2032 88.2152Z" fill="#FF4882"/>
<path d="M101.152 126.392L92.3091 126.392C90.981 126.392 89.8687 125.38 89.7413 124.058C88.4376 110.538 87.8848 102.304 87.1622 88.2152L89.2032 88.2152L105.443 88.2152M101.152 126.392L106.998 126.392C108.317 126.392 109.424 125.395 109.563 124.083C110.997 110.574 111.609 102.319 112.462 88.2152L110.166 88.2152L105.443 88.2152M101.152 126.392C102.164 125.822 102.553 124.875 102.816 121.643L105.443 88.2152" stroke="#FF4882" stroke-width="4.70008" stroke-linejoin="round"/>
</g>
</g>
<path d="M230.646 105.848V27.9366H236.18V105.848H230.646ZM212.552 28.815H220.193V104.969H214.66V58.8552H193.403V54.1998H214.66V33.7339L211.937 30.2204C211.41 29.6055 211.585 28.815 212.552 28.815ZM179.701 32.4163V82.5711H206.315V87.2264H178.822C178.12 87.2264 177.417 87.0508 176.89 86.5237L175.133 84.9427C174.518 84.3278 174.167 83.5373 174.167 82.7468V37.3352L171.444 33.8217C170.917 33.2068 171.093 32.4163 172.059 32.4163H179.701ZM301.912 67.2875V32.8555L299.189 29.342C298.662 28.7272 298.838 27.9366 299.804 27.9366H307.446V67.2875H301.912ZM287.419 46.031V47.6999C287.419 57.0106 280.129 63.5105 266.953 63.5105C253.778 63.5105 246.487 57.0106 246.487 47.6999V46.031C246.487 36.7203 253.778 30.2204 266.953 30.2204C280.129 30.2204 287.419 36.7203 287.419 46.031ZM252.021 46.3824V47.3486C252.021 53.4093 257.116 58.8552 266.953 58.8552C276.791 58.8552 281.886 53.4093 281.886 47.3486V46.3824C281.886 40.3216 276.791 34.8757 266.953 34.8757C257.116 34.8757 252.021 40.3216 252.021 46.3824ZM262.649 90.5642V101.192H308.676V105.848H261.771C261.068 105.848 260.366 105.672 259.839 105.145L258.082 103.564C257.467 102.949 257.116 102.159 257.116 101.368V85.9089H301.912V75.7198H257.291V71.0645H307.446V90.5642H262.649ZM383.719 27.9366V105.848H378.185V89.5102H357.983V84.8548H378.185V32.8555L375.463 29.342C374.936 28.7272 375.111 27.9366 376.077 27.9366H383.719ZM326.625 57.4498V35.5784L323.902 32.065C323.375 31.4501 323.551 30.6596 324.517 30.6596H365.273V61.9295H331.281C330.578 61.9295 329.875 61.7538 329.348 61.2268L327.592 59.6457C326.977 59.0308 326.625 58.2403 326.625 57.4498ZM359.74 35.3149H332.159V57.2741H359.74V35.3149ZM317.666 70.4496H373.794V75.105H347.97V104.969H342.436V75.105H317.666V70.4496ZM407.905 26.6191H413.439V40.7608H431.094V45.4162H390.25V40.7608H407.905V26.6191ZM452.965 57.2741V27.9366H458.499V105.848H452.965V61.9295H441.634V104.969H436.101V33.7339L433.378 30.2204C432.851 29.6055 433.026 28.815 433.993 28.815H441.634V57.2741H452.965ZM410.716 50.4228C422.486 50.4228 428.986 57.5376 428.986 67.551V73.1726C428.986 83.1859 422.486 90.3007 410.716 90.3007C398.946 90.3007 392.446 83.1859 392.446 73.1726V67.551C392.446 57.5376 398.946 50.4228 410.716 50.4228ZM423.452 72.8212V67.9023C423.452 60.8754 419.236 55.0782 410.716 55.0782C402.196 55.0782 397.98 60.8754 397.98 67.9023V72.8212C397.98 79.8481 402.196 85.6454 410.716 85.6454C419.236 85.6454 423.452 79.8481 423.452 72.8212ZM489.361 62.5443C495.685 57.4498 498.32 52.4431 498.32 47.7877V45.2405C498.32 39.5311 493.489 33.9974 484.705 33.9974C476.8 33.9974 471.706 39.2676 470.915 47.6121L465.469 46.558C466.084 37.8622 472.408 29.342 484.705 29.342C496.036 29.342 503.854 35.9298 503.854 44.1864V48.3148C503.854 53.585 499.901 60.6997 492.523 66.7605C487.955 70.5374 486.638 73.3482 486.638 78.7941V85.6454H481.104V78.9698C481.104 72.0307 482.949 67.7267 489.361 62.5443ZM487.516 94.1655V101.456H480.226V94.1655H487.516Z" fill="#FB6091"/>
<defs>
<filter id="filter0_d_249_5088" x="0.467791" y="0.856458" width="134.367" height="134.367" filterUnits="userSpaceOnUse" color-interpolation-filters="sRGB">
<feFlood flood-opacity="0" result="BackgroundImageFix"/>
<feColorMatrix in="SourceAlpha" type="matrix" values="0 0 0 0 0 0 0 0 0 0 0 0 0 0 0 0 0 0 127 0" result="hardAlpha"/>
<feOffset dy="2.58398"/>
<feGaussianBlur stdDeviation="4.52196"/>
<feComposite in2="hardAlpha" operator="out"/>
<feColorMatrix type="matrix" values="0 0 0 0 0.933789 0 0 0 0 0.933789 0 0 0 0 0.933789 0 0 0 1 0"/>
<feBlend mode="normal" in2="BackgroundImageFix" result="effect1_dropShadow_249_5088"/>
<feBlend mode="normal" in="SourceGraphic" in2="effect1_dropShadow_249_5088" result="shape"/>
</filter>
<clipPath id="clip0_249_5088">
<path d="M9.51172 17.6523C9.51172 11.944 14.1393 7.31641 19.8476 7.31641H115.455C121.163 7.31641 125.791 11.944 125.791 17.6523V113.26C125.791 118.968 121.163 123.595 115.455 123.595H19.8476C14.1393 123.595 9.51172 118.968 9.51172 113.26V17.6523Z" fill="white"/>
</clipPath>
</defs>
</svg>
