<svg width="248" height="83" viewBox="0 0 248 83" fill="none" xmlns="http://www.w3.org/2000/svg">
<g filter="url(#filter0_d_249_5179)">
<rect x="6" y="6.13965" width="236" height="70" rx="10" fill="white" shape-rendering="crispEdges"/>
<rect x="6.5" y="6.63965" width="235" height="69" rx="9.5" stroke="#CCCCCC" shape-rendering="crispEdges"/>
<path d="M89.6875 36.8896V31.5771C89.6875 30.7318 90.0233 29.921 90.6211 29.3232C91.2189 28.7255 92.0296 28.3896 92.875 28.3896H101.375C102.22 28.3896 103.031 28.7255 103.629 29.3232C104.227 29.921 104.562 30.7318 104.562 31.5771V50.7021C104.562 51.5475 104.227 52.3583 103.629 52.9561C103.031 53.5538 102.22 53.8896 101.375 53.8896H92.875C92.0296 53.8896 91.2189 53.5538 90.6211 52.9561C90.0233 52.3583 89.6875 51.5475 89.6875 50.7021V45.3896M95 36.8896L99.25 41.1396M99.25 41.1396L95 45.3896M99.25 41.1396H81.1875" stroke="#555555" stroke-width="2.125" stroke-linecap="round" stroke-linejoin="round"/>
<path d="M132.732 46.1475V47.71H116.717V46.1475H123.768V43.0811H118.67V37.5146H128.943V35.0537H118.631V33.5303H130.779V38.999H120.506V41.5576H131.189V43.0811H125.604V46.1475H132.732ZM148.869 34.0771V35.9521C148.869 38.2178 148.869 40.6787 148.225 44.4092L146.33 44.2334C147.033 40.7373 147.033 38.1592 147.033 35.9521V35.6006H136.721V34.0771H148.869ZM150.959 45.7764V47.3193H135.002V45.7764H150.959ZM167.799 32.3193V45.0342H165.943V32.3193H167.799ZM168.326 47.9248V49.4287H156.354V43.7451H158.229V47.9248H168.326ZM158.307 33.4912C160.943 33.4912 162.955 35.2881 162.955 37.8271C162.955 40.4053 160.943 42.1826 158.307 42.1826C155.67 42.1826 153.639 40.4053 153.639 37.8271C153.639 35.2881 155.67 33.4912 158.307 33.4912ZM158.307 35.1123C156.666 35.1123 155.455 36.2256 155.455 37.8271C155.455 39.4678 156.666 40.5615 158.307 40.5615C159.908 40.5615 161.139 39.4678 161.139 37.8271C161.139 36.2256 159.908 35.1123 158.307 35.1123Z" fill="#555555"/>
</g>
<defs>
<filter id="filter0_d_249_5179" x="0" y="0.139648" width="248" height="82" filterUnits="userSpaceOnUse" color-interpolation-filters="sRGB">
<feFlood flood-opacity="0" result="BackgroundImageFix"/>
<feColorMatrix in="SourceAlpha" type="matrix" values="0 0 0 0 0 0 0 0 0 0 0 0 0 0 0 0 0 0 127 0" result="hardAlpha"/>
<feOffset/>
<feGaussianBlur stdDeviation="3"/>
<feComposite in2="hardAlpha" operator="out"/>
<feColorMatrix type="matrix" values="0 0 0 0 0.494629 0 0 0 0 0.494629 0 0 0 0 0.494629 0 0 0 0.25 0"/>
<feBlend mode="normal" in2="BackgroundImageFix" result="effect1_dropShadow_249_5179"/>
<feBlend mode="normal" in="SourceGraphic" in2="effect1_dropShadow_249_5179" result="shape"/>
</filter>
</defs>
</svg>
